<svg width="107" height="165" viewBox="0 0 107 165" fill="none" xmlns="http://www.w3.org/2000/svg">
<path d="M29.6192 0L0 25.5802V70.0506H59.2384V25.5802L29.6192 0ZM41.894 59.7288H17.3444C13.8456 59.7288 11.0033 56.8865 11.0033 53.3877V33.733C11.0033 31.8797 11.8094 30.1179 13.2222 28.9128L25.4971 18.3998C27.874 16.3637 31.3728 16.3637 33.7496 18.3998L46.0245 28.9128C47.429 30.1179 48.2434 31.8797 48.2434 33.733V53.3877C48.2434 56.8948 45.4012 59.7288 41.9024 59.7288H41.894Z" fill="#FF6D3A"/>
<path d="M6.79798 81.5276L0.174351 89.2067C0.0663128 89.3314 0.00817871 89.4893 0.00817871 89.6472V105.537H3.59834V99.0964C3.59834 98.7889 3.8477 98.5396 4.15519 98.5396H10.571C10.8785 98.5396 11.1278 98.7889 11.1278 99.0964V105.537H14.718V89.6555C14.718 89.481 14.6599 89.3147 14.5435 89.1901L7.92822 81.5276C7.62903 81.1869 7.09717 81.1869 6.8063 81.5276M10.3882 95.5228H4.34632C3.93079 95.5228 3.59834 95.1904 3.59834 94.7749V90.9852C3.59834 90.6029 3.73132 90.2372 3.97233 89.9464L6.79798 86.4808C7.09716 86.1234 7.64566 86.1234 7.93654 86.4808L10.7705 90.0045C11.0031 90.2954 11.1361 90.6611 11.1361 91.0351V94.7749C11.1361 95.1904 10.8037 95.5228 10.3882 95.5228Z" fill="white"/>
<path d="M25.63 87.9602C20.2031 87.9602 19.156 90.1875 19.156 94.2015V105.496H22.5301V94.401C22.5301 91.6003 23.4775 91.0601 25.63 91.0601C27.7825 91.0601 28.6966 91.6003 28.6966 94.401V105.496H32.0708V94.2015C32.0708 90.1875 31.0569 87.9602 25.63 87.9602Z" fill="white"/>
<path d="M44.6782 81.8849V88.6913C44.6782 88.8908 44.6449 88.9656 44.512 88.9656C44.1712 88.9656 43.2986 88.0514 41.0048 88.0514C37.0573 88.0514 35.1708 89.9379 35.1708 96.9521C35.1708 103.227 36.6916 105.786 41.6448 105.786C46.5979 105.786 48.0523 103.559 48.0523 98.9052V81.8766H44.6782V81.8849ZM44.7779 99.2127C44.7779 101.772 43.9718 102.687 41.7113 102.687C39.4508 102.687 38.4784 101.847 38.4784 96.9521C38.4784 92.0572 39.4923 91.1513 41.7528 91.1513C43.7058 91.1513 44.7862 91.8577 44.7862 93.8855V99.2127H44.7779Z" fill="white"/>
<path d="M59.2467 88.3093C58.6068 88.1514 57.543 87.9602 56.1468 87.9602C53.047 87.9602 51.7339 89.1071 51.7339 92.7804V105.487H55.108V93.1128C55.108 91.4922 55.615 91.0601 57.0943 91.0601C57.4766 91.0601 57.8838 91.0933 58.2494 91.1266C59.3298 91.2595 59.8285 91.4091 59.8285 91.4091L60.3105 88.5669C60.3105 88.5669 59.4711 88.3342 59.255 88.3009" fill="white"/>
<path d="M68.1807 87.9519C66.4354 87.9519 64.873 88.2096 63.8176 88.5669L62.8868 88.8328L63.3688 91.6003C63.3688 91.6003 63.8092 91.4756 64.3162 91.3759C65.0725 91.2346 66.3773 90.9521 67.8732 90.9521C70.3331 90.9521 71.106 91.6585 71.106 94.4592C71.106 94.8332 70.9398 94.9661 70.5991 94.9661H67.6654C63.7843 94.9661 62.1388 96.4537 62.1388 100.127C62.1388 104.075 63.4519 105.795 66.8593 105.795C70.2667 105.795 71.1392 103.775 71.48 103.775C71.5132 103.775 71.5797 103.775 71.613 103.842L71.8955 105.055L71.9205 105.155C71.9205 105.155 71.9205 105.155 71.9205 105.163L72.0036 105.512H74.4386V94.5672C74.4386 89.3398 72.4191 87.9602 68.164 87.9602M71.131 99.5952C71.131 101.615 69.9841 102.969 67.8233 102.969C66.0698 102.969 65.3301 102.363 65.3301 100.135C65.3301 98.2156 66.103 97.6089 68.43 97.6089H70.757C70.9896 97.6089 71.131 97.7419 71.131 98.0161V99.6035V99.5952Z" fill="white"/>
<path d="M100.617 88.0266C96.2044 88.0266 93.9438 89.8467 93.9438 96.8941C93.9438 103.942 96.0714 105.828 100.958 105.828C102.537 105.828 103.917 105.629 104.814 105.354C104.814 105.354 104.872 105.338 104.897 105.329C104.922 105.321 104.956 105.313 104.98 105.304C105.703 105.063 106.227 104.723 106.227 104.723L105.579 102.138L104.548 102.404C103.834 102.57 102.678 102.869 101.224 102.869C98.3568 102.869 97.3097 102.03 97.3097 98.7557V98.5562C97.3097 98.4233 97.3761 98.3568 97.5423 98.3568H106.643V95.4231C106.643 90.1957 104.723 88.0432 100.609 88.0432M103.576 95.7639H97.3014V95.3483C97.3429 91.8329 98.4815 91.0102 100.634 91.0102C102.537 91.0102 103.543 91.808 103.568 95.4231V95.7639H103.576Z" fill="white"/>
<path d="M102.371 126.281C102.371 132.987 100.783 135.248 95.7636 135.248C90.744 135.248 89.1233 132.987 89.1233 126.281C89.1233 119.574 90.7107 117.413 95.7636 117.413C100.816 117.413 102.371 119.64 102.371 126.281ZM92.5639 126.281C92.5639 131.001 93.2704 132.148 95.7636 132.148C98.2568 132.148 98.9299 131.001 98.9299 126.281C98.9299 121.56 98.2236 120.513 95.7636 120.513C93.3036 120.513 92.5639 121.593 92.5639 126.281Z" fill="white"/>
<path d="M62.9202 117.355C57.4933 117.355 56.4462 119.582 56.4462 123.596V134.89H59.8203V123.796C59.8203 120.995 60.7677 120.455 62.9202 120.455C65.0726 120.455 65.9868 120.995 65.9868 123.796V134.89H69.3609V123.596C69.3609 119.582 68.347 117.355 62.9202 117.355Z" fill="white"/>
<path d="M45.1187 117.637C44.4787 117.48 43.415 117.288 42.0188 117.288C38.9189 117.288 37.6058 118.435 37.6058 122.109V134.816H40.98V122.441C40.98 120.82 41.4869 120.388 42.9662 120.388C43.3485 120.388 43.7557 120.422 44.1214 120.455C45.2018 120.588 45.7004 120.737 45.7004 120.737L46.1824 117.895C46.1824 117.895 45.3431 117.662 45.127 117.629" fill="white"/>
<path d="M15.225 111.23L9.1665 121.743C9.03353 121.959 8.7759 121.959 8.64292 121.743L2.65928 111.23H0.00817871V134.832H3.63162V120.388C3.63162 120.388 3.61499 119.507 4.45437 120.388L7.47114 125.408C7.99471 126.281 8.30219 126.63 8.90887 126.63C9.51555 126.63 9.86459 126.281 10.3051 125.408L13.2969 120.405C13.2969 120.405 13.3135 120.405 13.3302 120.388C14.0864 119.591 14.1446 120.214 14.1446 120.347V134.841H17.7182V111.238H15.2333L15.225 111.23Z" fill="white"/>
<path d="M27.6165 117.288C25.8712 117.288 24.3088 117.546 23.2534 117.903L22.3226 118.169L22.8046 120.937C22.8046 120.937 23.245 120.812 23.752 120.712C24.5082 120.571 25.813 120.289 27.309 120.289C29.7689 120.289 30.5418 120.995 30.5418 123.796C30.5418 124.17 30.3756 124.303 30.0348 124.303H27.1012C23.2201 124.303 21.5746 125.79 21.5746 129.464C21.5746 133.411 22.8877 135.131 26.295 135.131C29.7024 135.131 30.5751 133.112 30.9158 133.112C30.9491 133.112 31.0155 133.112 31.0488 133.178L31.3313 134.392L31.3563 134.492C31.3563 134.492 31.3563 134.492 31.3563 134.5L31.4393 134.849H33.8744V123.904C33.8744 118.676 31.8549 117.297 27.5998 117.297M30.5667 128.932C30.5667 130.951 29.4199 132.306 27.2591 132.306C25.5056 132.306 24.7659 131.699 24.7659 129.472C24.7659 127.552 25.5388 126.945 27.8658 126.945H30.1927C30.4254 126.945 30.5667 127.078 30.5667 127.353V128.94V128.932Z" fill="white"/>
<path d="M52.7061 117.621H49.2655V134.882H52.7061V117.621Z" fill="white"/>
<path d="M52.7726 111.255H49.199V115.402H52.7726V111.255Z" fill="white"/>
<path d="M80.7547 117.338C78.6936 117.338 77.4471 117.878 76.6409 118.926C76.5745 118.992 76.5412 118.992 76.5079 118.992C76.4747 118.992 76.4415 118.959 76.4415 118.926V111.679C76.4415 111.679 76.4415 111.62 76.4415 111.595V111.271H73.1006V134.874H76.4663V134.533C76.4663 134.533 76.4663 134.516 76.4663 134.5V123.812C76.4663 121.419 77.447 120.438 79.774 120.438C81.9015 120.438 82.5747 121.277 82.5747 123.812V134.882H86.0153V123.438C86.0153 119.524 85.0014 117.338 80.7547 117.338Z" fill="white"/>
<path d="M32.5861 141.423L26.5359 151.919C26.403 152.135 26.1453 152.135 26.0124 151.919L20.0287 141.423H17.3776V164.992H20.9927V150.564C20.9927 150.564 20.9761 149.683 21.8155 150.564L24.8323 155.576C25.3558 156.448 25.655 156.797 26.27 156.797C26.885 156.797 27.2257 156.448 27.6662 155.576L30.658 150.581C30.658 150.581 30.6746 150.581 30.6913 150.564C31.4475 149.767 31.5057 150.39 31.5057 150.523V164.992H35.0793V141.423H32.5944H32.5861Z" fill="white"/>
<path d="M46.8639 144.664H52.482V141.398H40.1074V165H43.6893V155.518C43.6893 155.301 43.814 155.127 44.03 155.127H51.8088V151.944H44.03C43.814 151.944 43.681 151.811 43.681 151.553V147.897C43.681 145.237 44.2461 144.672 46.8639 144.672" fill="white"/>
<path d="M6.233 161.767C4.05561 161.767 3.57358 161.377 3.57358 158.717V141.39H0V164.959L12.8566 164.992V161.767H6.233Z" fill="white"/>
<path d="M87.2286 81.9348V88.7413C87.2286 88.9407 87.1953 89.0155 87.0624 89.0155C86.7216 89.0155 85.849 88.1014 83.5553 88.1014C79.6077 88.1014 77.7212 89.9879 77.7212 97.0021C77.7212 103.277 79.2421 105.836 84.1952 105.836C89.1484 105.836 90.6027 103.609 90.6027 98.9551V81.9265H87.2286V81.9348ZM87.3284 99.2626C87.3284 101.822 86.5222 102.736 84.2617 102.736C82.0012 102.736 81.0288 101.897 81.0288 97.0021C81.0288 92.1071 82.0428 91.2012 84.3033 91.2012C86.2563 91.2012 87.3367 91.9076 87.3367 93.9354V99.2626H87.3284Z" fill="white"/>
</svg>
